HIERARCHY
ROOT Hips
{
	OFFSET 0.0000 0.0000 0.0000
	CHANNELS 6 Xposition Yposition Zposition Zrotation Xrotation Yrotation
	JOINT Ab
	{
		OFFSET -0.0000 8.1305 -0.0000
		CHANNELS 3 Zrotation Xrotation Yrotation
		JOINT Chest
		{
			OFFSET -0.0000 26.2902 -0.0000
			CHANNELS 3 Zrotation Xrotation Yrotation
			JOINT Neck
			{
				OFFSET -0.0000 26.2902 0.0000
				CHANNELS 3 Zrotation Xrotation Yrotation
				JOINT Head
				{
					OFFSET -0.0000 10.8167 0.0000
					CHANNELS 3 Zrotation Xrotation Yrotation
					End Site
					{
						OFFSET -0.0000 16.7167 0.0000
					}
				}
			}
			JOINT LeftCollar
			{
				OFFSET -0.0000 26.2902 0.0000
				CHANNELS 3 Zrotation Xrotation Yrotation
				JOINT LeftShoulder
				{
					OFFSET 19.6667 -0.0000 0.0000
					CHANNELS 3 Zrotation Xrotation Yrotation
					JOINT LeftElbow
					{
						OFFSET 27.2190 0.0000 0.0000
						CHANNELS 3 Zrotation Xrotation Yrotation
						JOINT LeftWrist
						{
							OFFSET 30.7431 0.0000 0.0000
							CHANNELS 3 Zrotation Xrotation Yrotation
							End Site
							{
								OFFSET 0.0000 -14.7500 0.0000
							}
						}
					}
				}
			}
			JOINT RightCollar
			{
				OFFSET -0.0000 26.2902 0.0000
				CHANNELS 3 Zrotation Xrotation Yrotation
				JOINT RightShoulder
				{
					OFFSET -19.6667 0.0000 0.0000
					CHANNELS 3 Zrotation Xrotation Yrotation
					JOINT RightElbow
					{
						OFFSET -27.2190 0.0000 0.0000
						CHANNELS 3 Zrotation Xrotation Yrotation
						JOINT RightWrist
						{
							OFFSET -30.7431 0.0000 0.0000
							CHANNELS 3 Zrotation Xrotation Yrotation
							End Site
							{
								OFFSET -0.0000 -14.7500 0.0000
							}
						}
					}
				}
			}
		}
	}
	JOINT LeftHip
	{
		OFFSET 11.8000 0.0000 0.0000
		CHANNELS 3 Zrotation Xrotation Yrotation
		JOINT LeftKnee
		{
			OFFSET -0.0000 -39.7832 0.0000
			CHANNELS 3 Zrotation Xrotation Yrotation
			JOINT LeftAnkle
			{
				OFFSET -0.0000 -41.7317 0.0000
				CHANNELS 3 Zrotation Xrotation Yrotation
				End Site
				{
					OFFSET -0.0000 -4.9167 16.7167
				}
			}
		}
	}
	JOINT RightHip
	{
		OFFSET -11.8000 0.0000 0.0000
		CHANNELS 3 Zrotation Xrotation Yrotation
		JOINT RightKnee
		{
			OFFSET -0.0000 -39.7832 0.0000
			CHANNELS 3 Zrotation Xrotation Yrotation
			JOINT RightAnkle
			{
				OFFSET -0.0000 -41.7317 0.0000
				CHANNELS 3 Zrotation Xrotation Yrotation
				End Site
				{
					OFFSET -0.0000 -4.9167 16.7167
				}
			}
		}
	}
}
MOTION
Frames: 21
Frame Time: 0.010000
-9.4195 85.5369 88.8777 358.2657 347.1365 178.6667 359.4858 348.4382 4.8179 3.1537 11.7086 4.5466 350.1395 345.4509 354.1788 7.4768 13.0388 354.5851 339.1426 357.2962 14.8039 312.4452 40.9203 10.5743 356.9701 0.9745 310.0551 93.7989 347.5470 336.7661 27.0360 356.1214 343.9116 29.2522 50.5750 19.8608 328.1481 339.1980 66.6228 260.1897 350.6019 340.5774 352.1304 319.1151 358.1033 357.4195 39.9911 2.1454 1.0468 347.2150 16.6094 0.4783 14.9205 1.0335 5.1182 16.0691 17.5414 356.9448 325.2920 323.5680 
-9.4782 85.1795 87.3109 358.1256 347.4702 178.7776 359.0296 348.5232 4.7023 3.2146 11.5877 4.4717 350.7351 345.9656 354.2762 7.1877 12.6113 354.6198 338.8661 357.1638 15.3524 312.7517 42.0413 9.2968 358.3503 0.2100 308.9659 93.9923 347.7707 338.1045 27.3253 356.0380 343.8458 31.3884 49.6252 17.0136 329.3752 340.8102 64.3540 260.6455 350.4749 341.6618 351.5485 319.1128 356.9701 357.1898 42.1552 0.5751 3.7878 348.9983 20.2870 0.0878 14.8382 0.0166 4.9321 19.0707 18.5725 358.6414 324.7036 324.7343 
-9.5427 84.9131 85.8298 357.6842 347.6887 179.1319 358.1321 348.5059 4.3867 3.4156 11.7387 4.2171 351.1443 345.9117 354.2251 7.0395 12.3879 354.5444 338.2999 356.9645 15.9030 313.7480 43.0888 7.5335 359.6260 359.5769 307.6168 94.5018 347.8315 339.8889 27.6656 355.9684 343.7402 33.2149 48.3126 14.6107 330.7028 342.5377 61.8171 259.7992 349.9937 343.0068 350.4936 319.3874 354.6996 356.1203 43.3988 1.4921 4.3880 348.4175 20.4088 359.3971 14.2667 359.1993 5.0724 22.5809 18.7913 0.4414 324.4939 326.0502 
-9.7153 84.7423 84.4762 356.6233 347.5208 179.2864 356.8585 348.0128 4.0601 3.4188 12.4686 4.0124 351.0056 345.0168 354.1551 7.4434 12.5862 354.5161 337.9445 356.7703 16.8706 314.8456 44.3551 4.5711 1.1985 358.6828 306.5784 95.5120 348.0466 342.0923 27.9600 355.9185 343.7409 34.5867 47.0397 12.9760 331.8754 344.1221 58.7739 259.5374 349.5225 345.3312 348.6454 319.4691 352.7181 355.3797 44.4583 2.8994 5.4115 348.3988 20.8059 357.8300 12.7759 358.3504 5.4094 26.9692 19.3763 2.2073 324.6686 327.0986 
-9.8729 84.5925 83.1459 355.7336 347.5214 179.7707 355.8345 347.8210 3.6184 3.2076 13.0214 3.6847 351.3953 344.4139 354.0733 7.1293 12.6882 354.4433 337.7266 356.6205 17.3556 315.7173 45.6412 1.9199 3.0111 357.6151 305.5133 95.7073 348.9341 344.3568 28.2979 355.8892 343.9629 36.5218 45.5888 10.6314 332.5726 345.3277 55.3882 259.8738 349.0451 345.9783 346.7103 320.1813 350.8151 355.2092 44.9818 3.5190 6.3923 347.9377 21.1789 356.4672 11.5738 358.9755 6.6433 30.9642 18.1476 4.0180 325.7382 328.0184 
-9.9934 84.5134 81.8686 355.0795 347.5495 180.4596 355.1696 347.8194 3.1423 2.7891 13.4305 3.3114 351.5394 343.9690 354.0225 7.2801 12.7605 354.3930 337.4207 356.4952 17.5675 316.8843 46.3710 359.3504 4.4788 356.8709 304.5294 96.0057 348.4814 345.6421 28.7309 355.9008 344.5881 38.6615 43.9649 7.6149 332.9760 346.3229 52.1635 260.7418 348.4561 345.7799 345.0844 321.2156 349.0900 355.1031 45.2297 3.8330 6.8181 347.2169 21.7611 355.3834 9.9708 358.1855 7.2540 35.6661 17.5225 5.5807 327.4789 329.3283 
-10.0494 84.4422 80.5758 354.6340 347.8827 180.6950 355.0803 348.0056 2.8726 1.9576 14.0290 3.1353 351.3658 343.5862 354.1415 7.8127 12.7900 354.5277 337.7325 356.4976 18.0163 317.2723 47.4945 356.5936 6.5722 355.5324 303.9987 94.5300 347.9659 345.8179 29.2485 356.0604 346.0519 41.0704 42.0659 3.8393 333.3900 347.3163 49.2710 260.5161 348.6004 346.0501 344.3587 322.5689 349.8318 356.4503 45.3586 2.2978 6.8576 346.4785 21.8662 354.4372 8.4232 358.3091 8.2532 40.3429 16.4701 7.3595 329.5610 330.3970 
-10.1110 84.4149 79.2851 354.5507 348.3553 181.1385 355.2092 348.6609 2.6805 1.3687 13.9843 2.9781 350.9129 344.0218 353.9925 8.6648 12.1518 354.3442 337.8715 356.4962 17.9728 317.6759 48.9193 354.7212 8.7345 354.1662 302.5988 95.8641 348.2289 349.2404 29.7792 356.2016 346.7523 42.4632 41.1201 0.9909 333.3490 348.0158 46.0552 260.0619 348.8650 345.8391 343.8558 324.2185 350.2510 357.9233 45.1268 1.6359 6.5838 345.7547 21.1218 353.7728 6.9815 358.4308 9.9052 44.7075 13.7157 7.3083 332.2766 331.7764 
-10.0962 84.4208 77.9355 354.6413 348.8762 181.3188 355.4396 349.2367 2.6032 0.9313 14.0138 2.9130 350.9144 344.0401 354.1624 8.9126 12.3382 354.4887 338.3029 356.5509 18.1836 317.9963 50.6884 352.1590 11.1837 352.5825 301.9841 96.5493 348.7872 352.5281 30.1587 356.3477 347.3309 43.5240 40.5540 358.3686 333.4146 348.7656 43.4549 260.0967 349.3674 345.7668 344.0120 325.8200 351.3143 359.0632 44.9161 1.1072 6.7239 344.9788 20.3837 353.2866 5.5980 0.0305 13.1053 48.6683 11.2464 4.9820 334.8086 330.6503 
-10.0637 84.4919 76.6479 354.8630 349.3835 181.6417 355.4858 350.0958 2.5727 0.9869 13.5789 2.8439 351.1524 344.2138 354.2494 8.5328 12.6201 354.5351 338.2962 356.5193 17.9098 318.6197 51.7936 350.3561 13.0275 351.5451 300.6548 97.6778 350.0916 355.7010 30.2000 356.4928 347.6018 44.7177 39.5334 355.8001 333.6406 349.5278 41.2233 260.4329 349.1704 345.5525 344.4412 327.3085 351.9939 359.6046 44.8534 0.1549 6.6339 344.2984 20.2739 353.1150 4.0736 0.3371 15.2551 52.6980 10.4771 4.1568 335.9037 329.1094 
-10.0607 84.6377 75.3849 354.9361 349.3829 181.6921 355.6209 350.1757 2.4278 0.7220 13.5827 2.7111 351.4795 344.1114 354.4250 8.2665 12.9627 354.6820 339.2141 356.7247 18.1627 318.4229 54.2941 347.5180 16.2229 349.2687 301.0226 97.3167 349.4795 357.7604 30.3284 356.6125 348.0297 45.5768 37.9135 353.3072 334.6024 350.4975 40.0718 260.5104 348.2245 347.0940 344.9202 328.4471 352.0720 358.9919 44.3595 0.3219 6.7603 343.8243 20.5355 352.7173 1.8320 0.4717 17.4854 56.5747 9.6650 2.8483 336.1098 328.3162 
-10.0672 84.8487 74.2035 354.8444 349.2807 181.6237 355.5258 350.2511 2.2653 0.6495 13.4986 2.5649 351.4865 344.0530 354.6796 8.2359 13.2222 354.9419 339.4832 356.7055 18.5471 320.2611 55.8469 343.7812 18.2435 348.3084 300.4288 98.1614 349.7805 359.6622 30.3746 356.7172 348.3669 45.7022 36.1749 351.3713 336.1135 351.4795 39.6399 260.8345 347.5069 349.1314 345.1620 329.4286 352.3892 358.8325 43.8441 0.1937 6.5181 343.3647 20.6465 352.1506 359.2191 0.5977 19.9401 60.2489 8.7461 1.9742 335.7357 327.7132 
-10.0418 85.0612 73.0459 354.9794 349.1308 181.7112 355.6134 350.3151 2.0799 0.6008 13.3971 2.3720 351.8051 343.7850 354.9819 7.8143 13.7340 355.2285 339.7106 356.6701 18.9541 323.0617 57.5153 339.1704 20.0055 347.3652 299.9402 99.1506 349.8349 0.9141 30.4287 356.7987 348.5398 45.6973 34.5932 349.4244 337.6088 352.1970 39.7713 260.9041 346.5647 351.9634 345.8070 330.4293 352.6017 358.2320 43.1850 359.9779 6.6897 343.0699 20.9239 351.7768 356.6754 0.8161 23.2134 63.1207 6.7427 3.0713 334.8860 327.2638 
-10.0308 85.3530 71.8965 354.9897 348.9694 181.7840 355.4021 350.4860 1.9325 0.8708 12.9625 2.2120 351.9992 344.1183 355.2352 7.5003 13.7786 355.4631 339.5507 356.5637 19.0995 325.9106 58.6087 335.2092 21.3681 346.5571 298.9127 99.4437 349.9588 2.4991 30.4149 356.8300 348.4542 45.2704 33.0474 347.7680 339.3018 352.8959 40.1705 261.6351 345.7079 354.3846 346.2889 331.5223 352.9924 357.9073 42.3433 359.8650 6.3264 342.7254 20.8030 351.1752 353.9897 0.5377 26.6073 65.6957 4.0683 0.7097 335.7035 326.9121 
-10.0153 85.6360 70.7301 355.0836 348.8718 182.0481 355.2694 350.6165 1.6986 1.1473 12.8236 1.9514 352.3563 344.0164 355.3381 6.9580 14.1049 355.5519 339.5290 356.5925 18.7337 327.8657 59.1563 332.1792 22.4071 345.7495 297.3148 98.5885 350.0464 1.5992 30.2595 356.7923 348.0179 44.7534 31.7139 346.5155 340.9499 353.4668 40.8734 262.3187 344.9146 357.3935 346.8567 332.8189 353.4827 357.6647 41.2230 359.7538 5.9816 342.5691 20.3047 350.5435 351.6203 0.1139 30.5158 67.5569 0.9111 0.0808 335.6688 326.6182 
-10.0029 85.9279 69.5278 355.2871 348.7322 182.3257 355.3670 350.3728 1.3356 1.2766 13.1990 1.5618 352.7848 343.8545 355.6360 6.5714 14.1609 355.8607 339.3451 356.5663 18.8448 331.6933 59.5012 327.2723 23.2630 344.9674 296.0074 98.7223 350.0682 1.6074 30.0954 356.7702 347.8169 44.2565 30.4616 345.2323 342.5429 353.9611 41.7854 262.7571 344.4817 359.7547 347.4269 334.0872 354.2267 357.8246 40.1274 359.2425 5.6386 342.4318 19.8687 349.9973 349.2288 359.4194 34.3142 69.1629 357.4913 0.2398 334.5716 326.6823 
-9.9910 86.2535 68.3449 355.4402 348.6072 182.6640 355.3997 350.4120 1.0274 1.4294 13.1215 1.2382 353.0770 343.8403 355.8740 6.2171 14.4175 356.0845 339.0286 356.4880 18.8582 335.0098 59.4039 323.2514 23.8442 344.3184 294.5149 98.0403 349.3625 1.2499 29.8528 356.7182 347.3869 43.7548 29.8911 344.0228 343.7742 354.2337 42.7223 263.3360 344.4027 0.6346 347.8527 335.4261 355.0081 358.2064 38.9266 358.6182 5.4977 342.3785 19.3089 349.3644 346.7920 358.4811 38.0574 70.4268 353.8709 359.6062 335.0580 326.2529 
-10.0058 86.5701 67.1178 355.5562 348.6148 182.9541 355.5098 350.5477 0.7626 1.4341 13.0456 0.9558 353.4951 343.9124 356.0902 5.8133 14.5899 356.2760 338.6857 356.4130 18.8176 338.8021 59.1762 319.1488 24.2242 343.6932 292.7709 98.9022 349.7631 1.2893 29.4390 356.6637 346.7925 43.6954 29.6746 342.9436 344.6637 354.3695 43.3952 263.9506 344.4599 2.0749 348.2304 337.0128 355.6913 358.5420 37.5477 358.2253 4.9057 342.2458 18.6250 348.6414 344.5892 357.5960 41.7756 71.5032 350.2809 358.6519 334.9192 325.7284 
-9.9847 86.8804 65.9021 355.7440 348.6528 183.2657 355.7379 350.7199 0.4537 1.3192 12.9826 0.6307 354.1091 343.9703 356.3547 5.2851 14.7509 356.5087 338.4896 356.4020 18.5731 341.4393 58.7061 316.1514 24.6079 342.9652 291.1716 99.7863 349.5316 1.6899 29.1144 356.5677 346.1928 43.5025 30.1655 341.9285 345.3180 354.4383 43.9990 264.1074 344.5698 2.0659 348.6422 338.5906 356.3263 358.9281 36.1981 357.5855 4.4734 342.2220 18.1611 348.1235 342.2851 356.5464 44.5918 72.7113 348.2375 357.7239 335.0977 324.5222 
-9.9745 87.2000 64.6536 355.9176 348.8055 183.5592 356.1521 350.9515 0.0576 0.8665 12.8978 0.3192 354.9285 344.2736 356.6505 4.7075 14.6821 356.7498 338.7142 356.4771 18.4319 344.2769 58.6236 312.6060 25.4734 341.7794 290.3039 98.9966 349.0356 1.2567 28.8143 356.4966 345.8900 43.6479 29.5553 340.5532 346.0976 354.6306 44.9248 264.6041 344.2894 2.3383 349.0289 340.3557 356.6494 359.0380 34.7297 357.4031 4.0790 342.1467 17.7826 347.5025 340.2780 355.7311 47.6234 73.2098 345.4460 356.8635 334.8717 323.5586 
-9.8602 87.5014 63.4575 356.3090 348.8180 184.0224 356.4887 351.2208 359.7124 0.9041 12.5804 359.8820 355.0285 344.5132 356.8316 4.7619 14.7070 356.9043 338.6390 356.4988 18.2176 346.1158 58.1440 310.4174 26.0699 340.9425 288.7917 100.8660 350.1816 2.6899 28.5724 356.4441 345.7291 43.3313 28.5796 339.1722 347.1941 355.0355 46.0124 264.9973 344.7006 3.8583 349.6731 341.8205 356.7264 359.0882 33.4243 357.2412 3.5772 342.2827 17.2881 347.2088 338.1298 354.8949 49.9800 73.4148 342.6116 355.9815 335.0009 323.2856 
